# xmcd
#
# Track frame offsets:
#	150
#	18299
#	40145
#	59502
#	78413
#	97782
#	120646
#	138591
#	161081
#	180901
#	195494
#
# Disc length: 2826 seconds
#
# Revision: 1
# Processed by: cddbd v1.5.2PL0 Copyright (c) Steve Scherf et al.
# Submitted via: audiograbber 1.83.01
#
DISCID=840b080b
DTITLE=Steve Grace - Better Days Ahead
DYEAR=2006
DGENRE=Country
TTITLE0=Better Days Ahead
TTITLE1=Come to Jesus
TTITLE2=I Wait For the Lord
TTITLE3=Look to the Cross
TTITLE4=Be Glorified
TTITLE5=Somewhere in America
TTITLE6=Lord of All
TTITLE7=Let Revival Come
TTITLE8=Blessed Assurance
TTITLE9=Amazing Love
TTITLE10=Joy of the Lord
EXTD=
EXTT0=
EXTT1=
EXTT2=
EXTT3=
EXTT4=
EXTT5=
EXTT6=
EXTT7=
EXTT8=
EXTT9=
EXTT10=
PLAYORDER=
